<?xml version="1.0" encoding="UTF-8" standalone="no"?>
<svg
   xmlns:dc="http://purl.org/dc/elements/1.1/"
   xmlns:cc="http://creativecommons.org/ns#"
   xmlns:rdf="http://www.w3.org/1999/02/22-rdf-syntax-ns#"
   xmlns:svg="http://www.w3.org/2000/svg"
   xmlns="http://www.w3.org/2000/svg"
   xmlns:sodipodi="http://sodipodi.sourceforge.net/DTD/sodipodi-0.dtd"
   xmlns:inkscape="http://www.inkscape.org/namespaces/inkscape"
   version="1.1"
   viewBox="0 0 24 30"
   x="0px"
   y="0px"
   id="svg16"
   inkscape:version="0.91 r13725"
   sodipodi:docname="sort.svg">
  <metadata
     id="metadata28">
    <rdf:RDF>
      <cc:Work
         rdf:about="">
        <dc:format>image/svg+xml</dc:format>
        <dc:type
           rdf:resource="http://purl.org/dc/dcmitype/StillImage" />
        <dc:title />
      </cc:Work>
    </rdf:RDF>
  </metadata>
  <defs
     id="defs26" />
  <sodipodi:namedview
     pagecolor="#ffffff"
     bordercolor="#666666"
     borderopacity="1"
     objecttolerance="10"
     gridtolerance="10"
     guidetolerance="10"
     inkscape:pageopacity="0"
     inkscape:pageshadow="2"
     inkscape:window-width="640"
     inkscape:window-height="480"
     id="namedview24"
     showgrid="false"
     inkscape:zoom="11.125147"
     inkscape:cx="8.7380219"
     inkscape:cy="1.0276665"
     inkscape:window-x="496"
     inkscape:window-y="153"
     inkscape:window-maximized="0"
     inkscape:current-layer="svg16" />
  <path
     d="m 2,18 3,0 0,-15 2,0 0,15 3,0 -4,4 z m 9,-9 c -7.3333333,14 -3.6666667,7 0,0 z m 0,5 c -7.3333333,10.666667 -3.6666667,5.333333 0,0 z"
     id="path18"
     inkscape:connector-curvature="0"
     style="fill:#000000"
     sodipodi:nodetypes="cccccccccccc" />
  <path
     sodipodi:nodetypes="cccccccccccc"
     style="fill:#000000"
     inkscape:connector-curvature="0"
     id="path3365"
     d="m 11.337,6.9101135 3,0 0,15.0000005 2,0 0,-15.0000005 3,0 -4,-4 z m 9,9.0000005 c -7.333333,-14.0000005 -3.666666,-7.0000005 0,0 z m 0,-5 c -7.333333,-10.6666675 -3.666666,-5.3333335 0,0 z" />
</svg>
