<svg xmlns="http://www.w3.org/2000/svg" xmlns:xlink="http://www.w3.org/1999/xlink" viewBox="0 0 100 125" version="1.1" x="0px" y="0px"><g stroke="none" stroke-width="1" fill="none" fill-rule="evenodd"><path d="M42.6406628,16.8218847 L56.9230238,16.8218847 L56.9230238,13.2844322 L42.6406628,13.2844322 L42.6406628,16.8218847 Z M65.207456,16.8218847 L65.207456,12.2944425 C65.207456,8.27235071 61.9351053,5 57.9109424,5 L41.6527442,5 C37.6285813,5 34.3562306,8.27235071 34.3562306,12.2944425 L34.3562306,16.8218847 L16,16.8218847 L16,25.1063169 L83.5636866,25.1063169 L83.5636866,16.8218847 L65.207456,16.8218847 Z M30.6882982,79.1891612 L36.9016224,79.1891612 L36.9016224,45.2726959 L30.6882982,45.2726959 L30.6882982,79.1891612 Z M46.6731101,79.1891612 L52.8864342,79.1891612 L52.8864342,45.2726959 L46.6731101,45.2726959 L46.6731101,79.1891612 Z M62.6599931,79.1891612 L68.8733172,79.1891612 L68.8733172,45.2726959 L62.6599931,45.2726959 L62.6599931,79.1891612 Z M19.8791854,89.2008975 C19.8791854,92.4028305 22.4763548,95 25.680359,95 L73.8833276,95 C77.0873317,95 79.6824301,92.4028305 79.6824301,89.2008975 L79.6824301,31.0545392 L19.8791854,31.0545392 L19.8791854,89.2008975 Z" fill="#000000"/></g></svg>
