<?xml version="1.0" encoding="UTF-8" standalone="no"?>
<svg xmlns:rdf="http://www.w3.org/1999/02/22-rdf-syntax-ns#" xmlns:svg="http://www.w3.org/2000/svg" xmlns="http://www.w3.org/2000/svg" version="1.1" viewBox="0 0 24 30" x="0px" y="0px"><path fill="#ff00cc" d="M21 5h-9c-0.552 0-1-0.448-1-1s0.448-1 1-1h9c0.552 0 1 0.448 1 1s-0.448 1-1 1zM2 18h3v-15h2v15h3l-4 4zM12 8h6c0.552 0 1 0.448 1 1s-0.448 1-1 1h-6c-0.552 0-1-0.448-1-1s0.448-1 1-1zM12 13h3c0.552 0 1 0.448 1 1s-0.448 1-1 1h-3c-0.552 0-1-0.448-1-1s0.448-1 1-1z"/></svg>
