<?xml version="1.0" encoding="UTF-8" standalone="no"?>
<svg xmlns:rdf="http://www.w3.org/1999/02/22-rdf-syntax-ns#" xmlns:svg="http://www.w3.org/2000/svg" xmlns="http://www.w3.org/2000/svg" version="1.1" viewBox="0 0 24 30" x="0px" y="0px"><path fill="#000000" d="m 2,18 3,0 0,-15 2,0 0,15 3,0 -4,4 z m 9,-9 c -7.3333333,14 -3.6666667,7 0,0 z m 0,5 c -7.3333333,10.666667 -3.6666667,5.333333 0,0 z"/><path fill="#000000" d="m 11.337,6.9101135 3,0 0,15.0000005 2,0 0,-15.0000005 3,0 -4,-4 z m 9,9.0000005 c -7.333333,-14.0000005 -3.666666,-7.0000005 0,0 z m 0,-5 c -7.333333,-10.6666675 -3.666666,-5.3333335 0,0 z" /></svg>
