<?xml version="1.0" encoding="UTF-8" standalone="no"?>
<svg xmlns:rdf="http://www.w3.org/1999/02/22-rdf-syntax-ns#" xmlns:svg="http://www.w3.org/2000/svg" xmlns="http://www.w3.org/2000/svg" version="1.1" viewBox="0 0 24 30" x="0px" y="0px"><path fill="#ff00cc" d="M21 21h-9c-0.552 0-1-0.448-1-1s0.448-1 1-1h9c0.552 0 1 0.448 1 1s-0.448 1-1 1zM18 16h-6c-0.552 0-1-0.448-1-1s0.448-1 1-1h6c0.552 0 1 0.448 1 1s-0.448 1-1 1zM15 11h-3c-0.552 0-1-0.448-1-1s0.448-1 1-1h3c0.552 0 1 0.448 1 1s-0.448 1-1 1zM7 21h-2v-15h-3l4-4 4 4h-3v15z"/></svg>
